<svg xmlns="http://www.w3.org/2000/svg" xmlns:xlink="http://www.w3.org/1999/xlink" width="400" zoomAndPan="magnify" viewBox="0 0 300 299.999988" height="400" preserveAspectRatio="xMidYMid meet" version="1.0"><defs><clipPath id="0289bab438"><path d="M 4.035156 4.035156 L 295.785156 4.035156 L 295.785156 295.785156 L 4.035156 295.785156 Z M 4.035156 4.035156 " clip-rule="nonzero"/></clipPath><clipPath id="3ac77271ef"><path d="M 61.394531 61.414062 L 238.394531 61.414062 L 238.394531 96.664062 L 61.394531 96.664062 Z M 61.394531 61.414062 " clip-rule="nonzero"/></clipPath><clipPath id="cb95ff5e6c"><path d="M 203.351562 61.414062 L 238.601562 61.414062 L 238.601562 238.414062 L 203.351562 238.414062 Z M 203.351562 61.414062 " clip-rule="nonzero"/></clipPath><clipPath id="159e0848eb"><path d="M 24 76 L 227 76 L 227 273 L 24 273 Z M 24 76 " clip-rule="nonzero"/></clipPath><clipPath id="e1c06d919a"><path d="M 226.714844 101.980469 L 48.851562 273.007812 L 24.417969 247.597656 L 202.285156 76.570312 Z M 226.714844 101.980469 " clip-rule="nonzero"/></clipPath><clipPath id="0160081483"><path d="M 4 203 L 93 203 L 93 297 L 4 297 Z M 4 203 " clip-rule="nonzero"/></clipPath><clipPath id="f14e4b8981"><path d="M 31.253906 203.6875 L 92.933594 271.269531 L 65.789062 296.042969 L 4.109375 228.460938 Z M 31.253906 203.6875 " clip-rule="nonzero"/></clipPath><clipPath id="7e690f25cd"><path d="M 0 0 L 300 0 L 300 32.25 L 0 32.25 Z M 0 0 " clip-rule="nonzero"/></clipPath><clipPath id="076669e1da"><path d="M 0 0.0195312 L 30 0.0195312 L 30 300 L 0 300 Z M 0 0.0195312 " clip-rule="nonzero"/></clipPath><clipPath id="0738350aa2"><path d="M 267.75 0 L 300 0 L 300 295.960938 L 267.75 295.960938 Z M 267.75 0 " clip-rule="nonzero"/></clipPath></defs><g clip-path="url(#0289bab438)"><path fill="#000000" d="M 36.453125 4.035156 C 18.625 4.035156 4.035156 18.625 4.035156 36.453125 L 4.035156 263.371094 C 4.035156 281.199219 18.625 295.785156 36.453125 295.785156 L 263.371094 295.785156 C 281.199219 295.785156 295.785156 281.199219 295.785156 263.371094 L 295.785156 36.453125 C 295.785156 18.625 281.199219 4.035156 263.371094 4.035156 Z M 263.371094 263.371094 L 36.453125 263.371094 L 36.453125 36.453125 L 263.371094 36.453125 Z M 263.371094 263.371094 " fill-opacity="1" fill-rule="nonzero"/></g><g clip-path="url(#3ac77271ef)"><path fill="#000000" d="M 61.410156 61.414062 L 238.375 61.414062 L 238.375 96.664062 L 61.410156 96.664062 L 61.410156 61.414062 " fill-opacity="1" fill-rule="nonzero"/></g><g clip-path="url(#cb95ff5e6c)"><path fill="#000000" d="M 238.601562 61.429688 L 238.601562 238.394531 L 203.351562 238.394531 L 203.351562 61.429688 L 238.601562 61.429688 " fill-opacity="1" fill-rule="nonzero"/></g><g clip-path="url(#159e0848eb)"><g clip-path="url(#e1c06d919a)"><path fill="#000000" d="M 226.699219 102 L 48.867188 272.988281 L 24.433594 247.582031 L 202.265625 76.589844 L 226.699219 102 " fill-opacity="1" fill-rule="nonzero"/></g></g><g clip-path="url(#0160081483)"><g clip-path="url(#f14e4b8981)"><path fill="#000000" d="M 31.257812 203.691406 L 92.929688 271.265625 L 65.785156 296.039062 L 4.113281 228.464844 L 31.257812 203.691406 " fill-opacity="1" fill-rule="nonzero"/></g></g><g clip-path="url(#7e690f25cd)"><path fill="#000000" d="M 0.0117188 0 L 299.988281 0 L 299.988281 32.25 L 0.0117188 32.25 L 0.0117188 0 " fill-opacity="1" fill-rule="nonzero"/></g><path fill="#000000" d="M 0.0117188 270 L 299.988281 270 L 299.988281 302.25 L 0.0117188 302.25 L 0.0117188 270 " fill-opacity="1" fill-rule="nonzero"/><g clip-path="url(#076669e1da)"><path fill="#000000" d="M 30 0.03125 L 30 300.011719 L -2.25 300.011719 L -2.25 0.03125 L 30 0.03125 " fill-opacity="1" fill-rule="nonzero"/></g><g clip-path="url(#0738350aa2)"><path fill="#000000" d="M 300 -4.027344 L 300 295.953125 L 267.75 295.953125 L 267.75 -4.027344 L 300 -4.027344 " fill-opacity="1" fill-rule="nonzero"/></g></svg>